<mxfile host="app.diagrams.net" modified="2022-03-05T23:03:04.503Z" agent="5.0 (Windows NT 10.0; Win64; x64) AppleWebKit/537.36 (KHTML, like Gecko) Chrome/98.0.4758.102 Safari/537.36" etag="sGFJv4I5-C2IjyFYGiJb" version="16.6.4" type="github">
  <diagram id="prtHgNgQTEPvFCAcTncT" name="Page-1">
    <mxGraphModel dx="731" dy="402" grid="1" gridSize="10" guides="1" tooltips="1" connect="1" arrows="1" fold="1" page="1" pageScale="1" pageWidth="827" pageHeight="1169" math="0" shadow="0">
      <root>
        <mxCell id="0" />
        <mxCell id="1" parent="0" />
        <mxCell id="1gGuZJeXCDEBSDnsG_9m-2" value="User" style="shape=umlActor;verticalLabelPosition=bottom;verticalAlign=top;html=1;outlineConnect=0;" vertex="1" parent="1">
          <mxGeometry x="40" y="80" width="30" height="60" as="geometry" />
        </mxCell>
        <mxCell id="1gGuZJeXCDEBSDnsG_9m-3" value="&amp;lt;&amp;lt;BUC&amp;gt;&amp;gt;&lt;br&gt;2. Support Activity" style="ellipse;whiteSpace=wrap;html=1;" vertex="1" parent="1">
          <mxGeometry x="260" y="10" width="120" height="80" as="geometry" />
        </mxCell>
        <mxCell id="1gGuZJeXCDEBSDnsG_9m-4" value="&amp;lt;&amp;lt;BUC&amp;gt;&amp;gt;&lt;br&gt;1. Login Activity" style="ellipse;whiteSpace=wrap;html=1;" vertex="1" parent="1">
          <mxGeometry x="120" y="10" width="120" height="80" as="geometry" />
        </mxCell>
        <mxCell id="1gGuZJeXCDEBSDnsG_9m-5" value="&amp;lt;&amp;lt;BUC&amp;gt;&amp;gt;&lt;br&gt;5.&amp;nbsp;" style="ellipse;whiteSpace=wrap;html=1;" vertex="1" parent="1">
          <mxGeometry x="260" y="120" width="120" height="80" as="geometry" />
        </mxCell>
        <mxCell id="1gGuZJeXCDEBSDnsG_9m-6" value="&amp;lt;&amp;lt;BUC&amp;gt;&amp;gt;&lt;br&gt;4. Project Activity" style="ellipse;whiteSpace=wrap;html=1;" vertex="1" parent="1">
          <mxGeometry x="120" y="120" width="120" height="80" as="geometry" />
        </mxCell>
        <mxCell id="1gGuZJeXCDEBSDnsG_9m-7" value="&amp;lt;&amp;lt;BUC&amp;gt;&amp;gt;" style="ellipse;whiteSpace=wrap;html=1;" vertex="1" parent="1">
          <mxGeometry x="400" y="120" width="120" height="80" as="geometry" />
        </mxCell>
        <mxCell id="1gGuZJeXCDEBSDnsG_9m-8" value="&amp;lt;&amp;lt;BUC&amp;gt;&amp;gt;&lt;br&gt;3. Profile Activity" style="ellipse;whiteSpace=wrap;html=1;" vertex="1" parent="1">
          <mxGeometry x="400" y="10" width="120" height="80" as="geometry" />
        </mxCell>
      </root>
    </mxGraphModel>
  </diagram>
</mxfile>
